<?xml version="1.0" standalone="no"?>
<!DOCTYPE svg PUBLIC "-//W3C//DTD SVG 20010904//EN"
 "http://www.w3.org/TR/2001/REC-SVG-20010904/DTD/svg10.dtd">
<svg version="1.0" xmlns="http://www.w3.org/2000/svg"
 width="256.000000pt" height="227.000000pt" viewBox="0 0 256.000000 227.000000"
 preserveAspectRatio="xMidYMid meet">
<metadata>
Created by potrace 1.15, written by Peter Selinger 2001-2017
</metadata>
<g transform="translate(0.000000,227.000000) scale(0.100000,-0.100000)"
fill="#000000" stroke="none">
<path d="M928 2232 c-33 -28 -65 -44 -115 -57 -90 -24 -228 -84 -334 -145 -48
-28 -94 -50 -103 -50 -40 0 -95 36 -197 130 -97 90 -114 101 -142 98 -29 -3
-32 -6 -35 -40 -5 -64 15 -114 73 -176 56 -61 115 -164 115 -202 0 -11 11 -32
24 -45 l24 -24 -34 -11 c-45 -15 -43 -34 5 -48 33 -10 40 -17 45 -47 8 -42 18
-43 59 -9 27 23 37 25 79 20 56 -8 63 6 23 44 l-24 23 19 25 c32 40 26 55 -16
48 -19 -4 -42 -10 -50 -13 -17 -6 -19 11 -1 25 21 17 97 34 177 38 173 10 337
49 412 99 20 14 40 25 43 25 3 0 5 -21 5 -47 0 -27 7 -114 16 -194 l16 -145
-94 -95 c-112 -112 -179 -191 -203 -239 -10 -19 -42 -60 -71 -90 -72 -76 -88
-116 -74 -185 16 -75 58 -131 112 -145 32 -9 63 -32 128 -95 88 -87 168 -151
282 -225 102 -66 105 -87 52 -287 -19 -73 -34 -146 -32 -161 3 -23 8 -27 39
-30 54 -5 107 52 144 152 25 70 85 165 108 175 23 9 47 43 47 67 l0 26 31 -26
c44 -37 53 -34 46 18 -6 40 -4 47 18 64 34 27 31 40 -11 58 -26 11 -41 26 -55
59 -11 25 -24 45 -30 45 -6 0 -17 -16 -25 -36 -14 -34 -16 -35 -54 -29 -46 8
-54 -9 -19 -41 27 -24 43 -54 29 -54 -22 0 -88 73 -130 142 -93 156 -207 287
-283 323 l-48 23 78 48 c43 26 120 76 171 112 l94 63 39 -15 c78 -31 287 -78
389 -86 58 -5 128 -17 155 -25 97 -31 180 6 224 101 19 39 21 57 16 108 -5 48
-2 74 14 123 27 80 51 216 57 328 8 120 18 151 62 180 21 13 95 39 167 58 165
43 177 49 173 90 -3 28 -9 34 -53 50 -41 16 -63 18 -125 11 -115 -12 -217 -7
-246 12 -16 11 -36 15 -59 11 l-35 -6 6 40 c8 46 0 48 -45 14 -32 -23 -36 -23
-67 -10 l-34 14 0 -46 c0 -34 -7 -57 -26 -85 -31 -44 -27 -53 24 -53 32 0 36
-3 44 -32 5 -19 15 -33 23 -33 8 0 15 4 15 9 0 5 7 26 16 47 13 30 18 35 25
22 11 -20 -11 -96 -41 -137 -32 -47 -115 -227 -139 -305 -12 -37 -21 -95 -21
-128 l0 -60 -42 25 c-24 13 -101 55 -173 92 -71 37 -135 72 -142 77 -7 5 -19
35 -28 66 -34 117 -114 319 -149 377 -20 33 -44 84 -53 114 -8 31 -29 69 -48
90 -33 36 -35 36 -123 39 l-89 4 -45 -40z"/>
</g>
</svg>
