<?xml version="1.0" standalone="no"?>
<!DOCTYPE svg PUBLIC "-//W3C//DTD SVG 20010904//EN"
 "http://www.w3.org/TR/2001/REC-SVG-20010904/DTD/svg10.dtd">
<svg version="1.0" xmlns="http://www.w3.org/2000/svg"
 width="592.000000pt" height="525.000000pt" viewBox="0 0 592.000000 525.000000"
 preserveAspectRatio="xMidYMid meet">
<metadata>
Created by potrace 1.15, written by Peter Selinger 2001-2017
</metadata>
<g transform="translate(0.000000,525.000000) scale(0.100000,-0.100000)"
fill="#000000" stroke="none">
<path d="M2290 5241 c-56 -12 -92 -36 -139 -91 -60 -71 -102 -95 -206 -120
-118 -27 -256 -73 -380 -125 -140 -60 -409 -194 -478 -239 -89 -57 -178 -96
-220 -96 -46 0 -146 33 -196 65 -21 13 -94 75 -162 137 -286 263 -349 317
-384 328 -44 14 -78 7 -105 -22 -30 -32 -27 -69 16 -234 19 -71 81 -160 191
-275 85 -88 99 -108 155 -225 45 -96 61 -139 59 -166 -1 -21 7 -54 18 -76 21
-42 74 -92 96 -92 8 0 11 -7 8 -20 -4 -14 -27 -26 -84 -45 -108 -36 -108 -54
4 -90 45 -15 87 -33 93 -41 6 -7 17 -45 24 -84 7 -38 17 -70 22 -70 5 0 43 27
84 60 l74 61 102 -9 c57 -6 106 -8 111 -5 16 9 5 32 -47 93 -45 53 -53 67 -43
80 7 8 29 36 49 61 39 47 49 79 24 79 -8 0 -56 -10 -106 -21 -74 -17 -97 -19
-118 -10 l-25 12 38 39 c31 32 58 46 144 75 98 32 115 35 226 35 222 0 695 77
791 128 11 6 45 17 75 25 60 15 127 56 196 119 24 21 47 38 52 38 16 0 21 -29
31 -193 6 -89 24 -281 40 -425 40 -353 40 -343 -12 -377 -116 -75 -543 -544
-625 -686 -66 -114 -95 -151 -218 -279 -82 -84 -106 -117 -123 -163 -44 -117
-23 -251 60 -385 71 -114 96 -134 203 -159 82 -19 134 -52 184 -116 121 -157
500 -470 740 -612 118 -70 175 -126 195 -194 30 -102 23 -157 -64 -485 -79
-299 -91 -367 -69 -409 17 -31 28 -37 79 -37 39 0 52 6 94 43 136 116 172 173
241 380 32 95 47 123 123 227 67 91 97 123 128 138 33 16 48 33 69 76 18 37
26 66 23 86 -7 49 29 39 92 -25 84 -85 97 -76 76 58 l-13 88 64 51 c34 28 63
54 63 58 0 4 -41 24 -91 46 l-91 40 -40 97 c-51 122 -64 125 -103 25 -15 -40
-31 -77 -35 -81 -4 -5 -43 -2 -85 7 -119 25 -122 15 -25 -98 53 -64 68 -87 63
-104 -3 -12 -6 -22 -8 -22 -30 0 -102 44 -166 102 -66 60 -88 88 -124 158
-127 251 -437 649 -595 764 -25 18 -83 50 -130 71 -47 21 -86 39 -88 40 -13
10 24 42 101 85 51 29 227 142 393 251 173 115 310 199 323 199 13 0 63 -16
110 -35 97 -38 397 -117 627 -164 110 -22 179 -31 251 -31 118 0 248 -20 357
-56 66 -23 91 -26 166 -22 78 4 94 8 145 39 76 45 141 119 193 219 35 68 42
91 42 139 0 32 -7 78 -16 104 -23 67 -13 142 35 279 70 199 131 560 146 863 9
190 17 216 79 278 28 29 76 64 106 79 30 14 188 61 350 102 162 42 307 82 323
88 38 15 77 64 77 98 0 33 -44 90 -70 90 -9 0 -44 12 -76 28 -56 26 -66 27
-199 26 -103 0 -163 -6 -229 -21 -89 -20 -91 -20 -233 -2 -113 14 -152 24
-187 44 -50 29 -117 33 -173 10 -54 -23 -60 -10 -38 85 12 55 15 84 8 91 -7 7
-35 -9 -89 -49 l-79 -58 -60 23 c-108 42 -98 49 -90 -66 l7 -101 -61 -79 c-34
-44 -61 -87 -61 -97 0 -17 18 -17 164 -1 15 2 24 -13 45 -75 14 -42 29 -80 33
-84 15 -14 35 17 67 110 25 69 40 97 57 105 25 11 27 9 38 -61 5 -25 -2 -69
-21 -140 -22 -82 -38 -119 -81 -183 -105 -158 -276 -529 -322 -700 -12 -44
-29 -102 -37 -129 -13 -38 -15 -76 -10 -177 5 -113 4 -129 -10 -129 -9 0 -68
30 -132 68 -64 37 -249 135 -411 217 -232 118 -294 154 -292 168 2 10 -3 17
-13 17 -16 0 -45 55 -45 86 0 9 -6 30 -14 47 -7 18 -40 115 -73 217 -88 267
-187 514 -238 591 -67 102 -123 220 -152 322 -14 50 -34 109 -45 130 -32 64
-93 122 -161 153 -56 26 -73 29 -187 31 -69 1 -141 -2 -160 -6z m224 -37 c26
-10 8 -24 -30 -24 -75 0 -99 -36 -106 -161 -5 -73 -11 -97 -39 -148 -35 -67
-48 -77 -120 -96 -45 -12 -48 -12 -53 9 -3 11 -6 84 -6 160 0 136 1 141 27
179 30 44 70 68 128 78 52 9 179 11 199 3z m131 -43 c57 -32 105 -89 131 -156
l17 -46 -54 -55 c-31 -31 -81 -68 -117 -86 -66 -33 -114 -75 -138 -120 -8 -16
-18 -28 -22 -28 -13 0 -42 68 -42 96 0 30 58 147 112 227 57 84 65 112 41 145
-11 15 -22 35 -26 46 -6 16 -4 17 20 11 16 -3 51 -19 78 -34z m-101 -32 c18
-27 11 -48 -44 -130 -57 -83 -110 -197 -110 -237 0 -18 14 -60 31 -93 17 -34
28 -67 25 -74 -12 -31 -128 -45 -174 -21 -53 28 -85 72 -86 118 l-1 43 50 12
c70 18 95 39 134 117 29 56 35 81 39 149 2 45 11 94 19 110 12 23 20 27 58 27
33 0 47 -5 59 -21z m-2378 -105 c31 -24 34 -31 33 -78 0 -28 -8 -94 -17 -146
l-18 -94 -26 34 c-39 53 -58 95 -74 168 -28 128 -28 128 -4 145 26 18 53 11
106 -29z m1966 -121 l4 -148 -40 -43 c-40 -42 -178 -142 -197 -142 -5 0 -9 17
-9 39 0 87 -39 217 -86 286 -13 20 -22 40 -20 44 3 4 58 20 123 35 65 15 138
38 163 51 25 13 48 24 52 24 3 1 8 -65 10 -146z m2538 64 c-12 -50 -11 -58 7
-84 16 -24 18 -34 8 -72 -9 -35 -18 -47 -47 -62 -30 -15 -39 -29 -62 -93 -16
-42 -29 -76 -31 -76 -2 0 -11 24 -21 53 -24 74 -25 75 -91 65 -89 -14 -91 -11
-33 64 l51 67 -7 80 -7 81 63 -25 62 -24 57 43 c31 24 58 42 59 41 2 -2 -2
-28 -8 -58z m-4370 -112 c0 -27 -11 -97 -23 -154 l-23 -104 -32 40 -31 40 19
114 c11 63 20 127 20 142 l0 28 35 -28 c32 -25 35 -33 35 -78z m1505 -22 c34
-68 55 -156 55 -228 l0 -61 -42 -21 c-79 -39 -198 -53 -431 -52 -247 1 -208
12 -442 -127 -147 -87 -179 -100 -220 -90 -51 13 -59 144 -15 244 21 49 25 53
49 47 14 -4 50 -11 79 -15 68 -12 123 8 264 93 118 71 420 219 552 270 l90 35
18 -23 c10 -13 29 -45 43 -72z m1015 22 c18 -58 85 -187 135 -264 26 -38 72
-138 111 -236 71 -183 178 -498 189 -555 l6 -35 -133 -106 c-177 -141 -246
-189 -275 -189 -13 0 -66 15 -119 32 l-94 32 6 131 c14 278 -25 505 -137 791
-37 94 -39 105 -29 148 11 49 45 110 76 137 11 9 53 36 94 59 41 23 90 57 109
76 19 19 38 31 42 27 3 -5 12 -26 19 -48z m2095 4 c30 -21 35 -32 46 -91 11
-59 10 -70 -5 -93 -13 -20 -23 -25 -39 -21 -12 3 -32 9 -44 12 -17 5 -31 -2
-57 -28 -41 -41 -42 -50 -55 -304 -8 -179 -9 -183 -40 -235 -35 -62 -59 -94
-64 -88 -42 60 -67 84 -98 98 l-39 18 51 89 c29 49 65 106 81 126 21 27 39 72
60 154 31 115 31 118 18 210 -10 77 -10 100 0 125 26 61 117 74 185 28z
m-4502 -57 c17 -19 17 -24 -14 -153 -17 -74 -34 -137 -38 -142 -4 -4 -22 9
-41 28 l-34 35 23 118 c12 64 25 129 28 145 l5 27 26 -19 c15 -10 35 -28 45
-39z m5288 34 c168 -56 195 -75 166 -120 -10 -14 -37 -31 -66 -41 -46 -15 -52
-15 -82 0 -17 9 -68 52 -113 96 l-81 78 66 1 c36 0 86 -7 110 -14z m-115 -87
c55 -51 100 -95 102 -99 3 -8 -46 -20 -80 -20 -11 0 -63 43 -120 98 -99 96
-100 97 -72 103 62 14 70 10 170 -82z m-523 72 c18 -7 39 -42 87 -148 35 -76
64 -139 64 -140 1 -1 7 2 14 6 10 6 0 36 -39 122 -75 165 -72 157 -41 151 28
-5 117 -85 203 -184 l50 -56 -57 -17 c-31 -9 -69 -18 -84 -20 -15 -2 -55 -17
-89 -35 -35 -17 -64 -30 -65 -28 -21 40 -86 124 -107 139 -27 19 -28 20 -13
56 15 34 14 91 -2 146 -4 13 1 17 25 17 16 0 40 -4 54 -9z m391 -108 l106
-102 -52 -16 c-28 -8 -55 -15 -58 -15 -4 0 -53 49 -109 109 l-102 110 43 9
c24 6 48 9 54 9 7 -1 60 -48 118 -104z m-4889 -53 c34 -30 80 -64 103 -75 23
-11 40 -22 39 -25 -24 -42 -50 -115 -54 -151 -5 -44 -7 -46 -47 -57 -23 -6
-63 -29 -88 -52 l-47 -41 -21 41 c-24 47 -26 43 78 208 45 72 61 107 54 114
-7 7 -24 -12 -57 -63 -104 -165 -109 -171 -122 -152 -7 9 -13 25 -13 36 0 16
54 258 66 296 5 15 8 13 109 -79z m1589 8 c4 -18 20 -49 36 -69 l29 -37 -42
-39 c-96 -89 -193 -135 -247 -118 -12 4 -35 27 -50 52 l-29 46 91 56 c50 31
114 77 142 102 28 26 54 45 57 43 4 -2 9 -18 13 -36z m2752 -43 c53 -15 128
-83 157 -141 l16 -31 -54 -56 c-65 -70 -73 -98 -85 -322 -11 -202 -48 -481
-83 -622 -12 -48 -12 -48 -57 -51 -66 -5 -156 15 -235 53 -108 52 -110 54 -97
119 18 91 68 194 160 329 48 71 102 153 121 183 l34 55 9 192 c10 230 13 248
39 281 11 14 22 26 23 26 1 0 25 -7 52 -15z m-2410 -221 c66 -173 100 -312
115 -474 10 -109 8 -365 -4 -376 -2 -3 -51 13 -108 34 l-104 37 -32 280 c-17
154 -34 345 -38 425 -4 80 -11 157 -15 173 -9 26 -8 27 33 28 23 0 51 4 62 9
11 5 24 7 29 6 5 -1 33 -65 62 -142z m-666 77 c0 -5 16 -31 36 -56 19 -26 33
-49 30 -52 -23 -23 -506 -113 -539 -100 -22 8 -23 72 -1 126 l15 39 152 5
c108 3 172 11 222 25 88 24 85 24 85 13z m-506 -81 c-10 -24 -15 -59 -12 -89
l3 -49 -57 -6 c-32 -4 -104 -6 -160 -6 -93 1 -113 -2 -206 -34 -90 -31 -112
-43 -178 -101 -63 -55 -80 -65 -112 -65 -68 0 -112 52 -112 132 0 38 5 49 43
85 73 73 118 76 132 12 9 -42 45 -63 99 -57 33 4 86 30 206 102 88 53 171 101
183 106 12 5 59 9 104 9 l83 1 -16 -40z m3235 -324 c15 -8 39 -33 54 -55 l27
-40 -56 -86 c-59 -91 -130 -235 -140 -283 -6 -28 -8 -30 -72 -35 -37 -3 -69
-3 -71 -1 -20 19 188 514 216 514 8 0 26 -6 42 -14z m-3831 -58 c34 -21 35
-21 109 -4 41 10 77 16 80 13 3 -3 -11 -26 -31 -50 -20 -24 -36 -48 -36 -53 0
-5 21 -33 46 -62 26 -29 45 -54 43 -56 -2 -2 -42 1 -89 5 l-84 7 -46 -37 c-84
-68 -78 -66 -86 -34 -23 105 -19 99 -89 124 -36 12 -65 26 -65 29 0 4 21 13
48 21 36 11 51 22 64 48 14 27 63 63 97 70 2 1 19 -9 39 -21z m2562 -293 c0
-9 6 -28 14 -44 l15 -27 -190 -155 -190 -154 4 -200 c3 -144 9 -215 20 -255 9
-30 19 -65 23 -77 6 -21 3 -23 -30 -23 -35 0 -38 3 -62 54 -30 65 -59 196 -75
336 -18 165 3 142 -237 248 l-210 94 10 31 c6 18 12 34 14 35 1 2 76 -23 166
-56 263 -97 294 -105 329 -87 33 18 234 168 324 244 65 54 75 59 75 36z m355
-278 c176 -90 368 -191 426 -225 58 -34 111 -62 117 -62 16 0 15 -3 -7 -42
-10 -18 -22 -48 -26 -66 -6 -28 -11 -33 -28 -29 -12 3 -74 13 -137 22 -284 41
-550 142 -780 296 -52 35 -100 67 -106 71 -7 5 -14 2 -17 -6 -6 -16 135 -115
263 -184 165 -90 427 -178 600 -202 173 -24 197 -31 229 -62 16 -16 40 -55 52
-86 19 -50 20 -66 13 -134 -6 -52 -5 -98 2 -140 7 -35 11 -64 9 -66 -1 -1 -33
5 -71 14 -38 9 -141 20 -229 24 -174 8 -311 33 -630 115 -250 64 -277 75 -297
116 -38 76 -50 151 -55 337 l-5 182 43 40 c24 21 50 39 57 40 6 0 12 4 12 9 0
9 229 201 240 201 3 0 149 -73 325 -163z m785 -67 c3 -91 9 -171 14 -179 7
-10 4 -11 -15 -5 -13 5 -52 9 -86 9 -74 0 -71 -4 -80 137 -5 78 -3 106 11 141
20 52 45 67 106 64 l45 -2 5 -165z m-1933 51 c256 -110 272 -118 277 -143 3
-13 7 -46 10 -74 l5 -52 -42 -18 c-215 -97 -510 -337 -659 -536 -30 -40 -78
-105 -108 -145 -48 -65 -58 -73 -95 -78 -55 -9 -141 22 -209 74 -28 22 -76 47
-108 56 l-58 16 62 72 c62 72 129 170 166 242 56 110 560 645 609 645 7 0 75
-27 150 -59z m2123 -32 c36 -12 99 -24 142 -27 l76 -4 -15 -52 c-8 -28 -29
-87 -46 -131 -16 -43 -31 -96 -32 -117 -1 -22 -5 -41 -8 -44 -2 -3 -42 19 -88
49 -46 30 -103 64 -126 75 -37 19 -42 27 -52 72 -6 28 -11 98 -11 155 l0 104
48 -29 c26 -16 76 -39 112 -51z m-192 -242 c15 -16 15 -20 -1 -64 -22 -63 -22
-97 3 -149 27 -54 94 -130 133 -150 76 -40 98 -104 52 -149 -48 -49 -78 -27
-127 95 -31 79 -109 200 -138 216 -14 7 -58 18 -97 24 -70 11 -73 13 -73 39 0
50 41 114 90 139 52 27 130 26 158 -1z m224 -120 c88 -56 99 -66 113 -106 24
-72 19 -111 -27 -200 -43 -83 -89 -142 -96 -123 -2 6 4 22 13 36 21 32 22 79
2 110 -9 13 -42 41 -73 62 -63 42 -118 109 -136 167 -9 31 -8 47 7 96 l18 60
41 -21 c23 -11 85 -48 138 -81z m-1846 17 c16 -92 42 -192 61 -227 8 -16 13
-30 11 -32 -25 -21 -572 -378 -645 -420 -54 -32 -110 -66 -125 -76 l-27 -19
-15 28 c-8 16 -31 43 -50 60 -20 17 -36 33 -36 36 0 3 35 53 77 113 96 136
314 354 440 443 104 73 273 170 288 166 5 -1 15 -34 21 -72z m1541 -137 c26
-23 97 -140 108 -177 13 -43 52 -114 73 -133 12 -11 32 -17 55 -15 74 5 53
-27 -51 -78 -48 -24 -60 -26 -134 -21 -47 3 -86 11 -94 19 -25 25 -40 136 -30
228 8 79 7 89 -17 148 l-26 63 47 -7 c26 -3 57 -16 69 -27z m-2795 -428 c39
-12 84 -34 102 -49 45 -39 110 -70 177 -84 l58 -11 -33 -40 c-31 -37 -37 -39
-107 -46 -42 -5 -119 -3 -180 4 -96 10 -109 9 -133 -6 -14 -10 -28 -28 -32
-41 -11 -45 -32 -39 -40 10 -8 57 1 124 22 167 17 34 82 117 91 117 3 0 36
-10 75 -21z m454 -154 c68 -73 67 -174 -3 -235 -18 -17 -37 -30 -42 -30 -5 0
-25 20 -45 44 -45 55 -85 69 -179 64 -56 -3 -86 -11 -136 -36 -80 -40 -122
-42 -150 -6 -25 32 -27 67 -4 89 14 15 27 16 92 9 105 -12 253 -10 288 5 16 6
49 39 72 71 24 33 51 60 59 60 8 0 30 -16 48 -35z m207 -206 c100 -49 147 -91
147 -132 0 -34 -28 -97 -46 -104 -7 -2 -39 12 -71 33 -66 42 -211 114 -230
114 -20 0 -15 16 11 33 13 9 32 37 42 62 23 54 25 54 147 -6z m-803 17 c0 -7
11 -25 25 -40 34 -37 87 -35 173 6 52 25 83 34 138 36 82 5 105 -5 154 -62
l34 -38 -25 -19 c-13 -11 -73 -46 -134 -79 -101 -56 -114 -60 -155 -54 -80 10
-109 31 -166 119 -56 87 -77 129 -67 139 11 11 23 6 23 -8z m623 -145 c30 -11
89 -39 131 -63 l76 -44 -38 -22 c-70 -39 -142 -103 -187 -167 -25 -34 -45 -68
-45 -74 0 -6 -4 -11 -9 -11 -10 0 -131 131 -164 178 -12 16 -38 39 -60 51
l-39 23 31 19 c17 10 57 32 89 48 31 16 73 41 92 55 43 31 52 31 123 7z m460
-109 c76 -90 230 -291 248 -324 14 -26 -12 -54 -60 -68 -81 -22 -83 -21 -152
105 -35 64 -92 149 -126 190 l-62 74 24 43 c14 24 25 51 25 60 0 30 26 10 103
-80z m-182 -46 c62 -42 153 -177 244 -360 48 -96 98 -185 112 -198 13 -12 97
-68 186 -124 146 -91 207 -142 207 -175 0 -16 -66 -73 -105 -90 -22 -10 -70
-21 -106 -25 l-66 -6 -8 38 c-21 114 -57 154 -245 271 -140 87 -324 226 -516
388 -28 24 -29 35 -8 78 37 70 215 227 258 227 6 0 27 -11 47 -24z m511 -403
c26 -43 59 -104 75 -137 19 -39 54 -84 106 -135 68 -67 89 -81 175 -116 87
-36 99 -44 115 -78 19 -37 19 -38 -5 -85 -31 -63 -84 -94 -137 -80 -59 16
-109 46 -116 69 -5 15 1 29 21 50 33 34 36 78 8 117 -19 26 -95 79 -293 203
-83 53 -92 62 -130 130 l-40 74 55 11 c30 6 67 20 82 32 15 11 29 21 33 21 3
1 26 -34 51 -76z m564 -125 l29 -73 73 -34 c39 -19 72 -38 72 -42 0 -4 -20
-22 -45 -40 l-46 -34 6 -80 6 -80 -43 42 c-38 37 -48 42 -78 37 -29 -4 -41 1
-67 26 -27 24 -33 37 -33 72 0 37 -7 51 -50 102 -28 32 -49 60 -47 62 2 3 27
-1 56 -7 28 -6 58 -9 65 -6 7 3 23 33 36 66 12 34 26 61 30 61 4 0 21 -33 36
-72z m-368 -467 c14 -19 43 -38 82 -52 33 -12 60 -24 60 -27 0 -3 -12 -21 -27
-40 l-26 -35 -126 7 c-69 4 -143 9 -164 13 l-38 6 3 57 3 58 65 7 c36 3 81 12
100 20 19 7 38 13 41 14 3 0 15 -12 27 -28z m-58 -177 c47 -4 93 -10 103 -13
16 -6 16 -8 -5 -28 -15 -15 -74 -35 -176 -62 l-154 -39 7 26 c3 15 13 51 22
81 l15 53 52 -6 c28 -3 89 -8 136 -12z m32 -159 l-18 -49 -139 -42 c-77 -23
-141 -41 -143 -40 -1 2 3 26 10 55 11 51 12 52 62 66 73 20 241 62 243 60 1 0
-5 -23 -15 -50z m-49 -138 l-16 -44 -136 -45 c-75 -25 -137 -45 -138 -44 -7 6
23 78 36 90 18 16 215 81 258 85 9 1 8 -11 -4 -42z m-59 -137 c-29 -54 -74
-103 -145 -161 -57 -46 -72 -51 -99 -32 -20 14 -22 22 -17 71 4 39 13 62 29
78 20 20 207 91 246 93 9 1 4 -16 -14 -49z"/>
</g>
</svg>
